Coordinates
version=1
nRows=13
nColumns=34
inDegrees=yes

Units are S.I. units (second, meters, Newtons, ...)
If the header above contains a line with 'inDegrees', this indicates whether rotational values are in degrees (yes) or radians (no).

endheader
time	pelvis_tilt	pelvis_list	pelvis_rotation	pelvis_tx	pelvis_ty	pelvis_tz	hip_flexion_r	hip_adduction_r	hip_rotation_r	knee_angle_r	ankle_angle_r	subtalar_angle_r	mtp_angle_r	hip_flexion_l	hip_adduction_l	hip_rotation_l	knee_angle_l	ankle_angle_l	subtalar_angle_l	mtp_angle_l	lumbar_extension	lumbar_bending	lumbar_rotation	arm_flex_r	arm_add_r	arm_rot_r	elbow_flex_r	pro_sup_r	arm_flex_l	arm_add_l	arm_rot_l	elbow_flex_l	pro_sup_l
      0.00000000	     -2.98514976	      0.88480983	     -2.85436909	      1.82812059	      0.87726802	     -0.17710173	      0.15983860	     -5.13071110	     -1.94574758	      4.02825230	      1.80962144	    -16.44595401	      0.00000000	     -0.50588141	     -3.07284900	     -5.82975916	      4.27680579	      6.50849758	     -5.32295498	      0.00000000	     -8.27718127	      1.64869782	     -3.80441149	     13.46137701	     -9.11513259	     40.18480832	     97.53271181	    104.54765441	      3.83124716	     -8.34860816	     27.42649499	     94.92874383	     99.41321309
      0.01666670	     -4.79758604	      1.13017936	     -2.88830327	      1.82915784	      0.87664900	     -0.17806173	      2.89503573	     -5.14553867	     -0.01470241	      5.09219770	      5.19617994	    -15.14019212	      0.00000000	      2.69906192	     -2.61132696	     -5.97232316	      5.24131396	      7.85457281	     -3.78681634	      0.00000000	     -5.99795452	      2.05979708	     -3.59827586	     11.99383559	     -9.23602798	     38.18951120	     97.55503502	    103.80347918	      3.07029468	     -8.94719937	     27.54253368	     95.61048865	     99.00973571
      0.03333330	     -5.00300191	      1.85818537	     -2.97436570	      1.82935935	      0.87655396	     -0.17732405	      2.76525599	     -6.04107485	     -0.44725693	      4.27146234	      5.64546254	    -14.34118378	      0.00000000	      2.85177443	     -2.08830662	     -6.98008136	      4.93229465	      8.13505091	     -2.65555483	      0.00000000	     -5.49543798	      1.15202583	     -2.72708578	     10.99118422	     -9.38446667	     37.26265837	     97.25543837	    102.41612363	      3.96899655	     -9.30253551	     28.01313235	     93.86954902	     97.63363047
      0.05000000	     -4.53249649	      2.34087350	     -3.00910812	      1.82921504	      0.87841251	     -0.17691315	      1.93690536	     -6.67297441	     -0.09371490	      3.67456381	      5.90600507	    -14.54786874	      0.00000000	      1.72188286	     -1.47169766	     -6.95340323	      3.89898572	      7.48545734	     -3.21411795	      0.00000000	     -6.06858103	      0.58563898	     -2.39672939	     10.89452889	     -9.47431979	     37.50404759	     96.68465353	    102.17599516	      4.57696428	     -9.49412034	     28.04551544	     93.39653958	     97.35392316
      0.06666670	     -3.98777063	      2.50531178	     -2.94612903	      1.82903240	      0.88059708	     -0.17646611	      0.93068038	     -6.82521133	      0.18357998	      2.92123380	      5.86244709	    -15.00840307	      0.00000000	      0.79035726	     -1.20887622	     -6.57505771	      3.21515737	      7.18770135	     -3.79378668	      0.00000000	     -6.82180711	      0.38203929	     -2.17420867	     11.06832425	     -9.52287461	     38.14445608	     96.57369751	    101.89263112	      5.25515442	     -9.67009297	     28.76297499	     93.11160079	     97.13973514
      0.08333330	     -4.01095185	      2.56417848	     -2.83405218	      1.82864243	      0.88204435	     -0.17579145	      0.80269471	     -6.77978392	      0.34024087	      2.59035205	      5.95824407	    -15.08129258	      0.00000000	      0.80077870	     -1.14414536	     -6.45677396	      3.08385432	      7.12329640	     -3.81060439	      0.00000000	     -6.96758941	      0.30138330	     -2.05956922	     10.98741467	     -9.17314984	     38.42051601	     96.62363620	    101.86453993	      5.42636659	     -9.53626201	     28.90226479	     93.17141675	     97.12340099
      0.10000000	     -3.24810839	      2.57160140	     -2.74514756	      1.82837172	      0.88372608	     -0.17539608	     -0.37335173	     -6.74857019	      0.85673439	      1.94002551	      5.36865196	    -15.92097544	      0.00000000	     -0.27530577	     -1.03990673	     -5.92049504	      2.51279332	      6.50131218	     -4.35430390	      0.00000000	     -7.96238336	      0.24315167	     -1.84756953	     11.54599836	     -9.24574311	     39.62510782	     96.79840444	    101.51116833	      6.26837000	     -9.88289092	     30.33876822	     93.26360036	     96.99006362
      0.11666670	     -3.26264573	      2.56259924	     -2.62043290	      1.82823671	      0.88343999	     -0.17536672	     -0.40101312	     -6.67960524	      0.94159850	      1.85737555	      5.37592523	    -15.92518432	      0.00000000	     -0.22467843	     -1.05502046	     -5.86454409	      2.46755140	      6.46407249	     -4.33494095	      0.00000000	     -8.02417423	      0.19659977	     -1.77159936	     11.55949843	     -9.12152351	     39.69847680	     96.82706814	    101.49827322	      6.30371351	     -9.85036732	     30.36084365	     93.27213072	     96.98212249
      0.13333330	     -2.79584799	      2.52254873	     -2.55405612	      1.82828789	      0.88366166	     -0.17551869	     -1.23356649	     -6.60562699	      1.40468335	      1.21026265	      4.73047708	    -16.87906462	      0.00000000	     -0.84730440	     -1.06483807	     -5.32305989	      2.20780746	      5.93413128	     -4.69818655	      0.00000000	     -8.70538703	      0.24597235	     -1.68119321	     11.96179285	     -9.24256064	     40.68068387	     97.29778555	    101.10064772	      6.91435706	     -9.97691397	     31.20273081	     93.24223576	     96.75096470
      0.15000000	     -2.78926294	      2.52824712	     -2.55286409	      1.82852517	      0.88334142	     -0.17565229	     -1.22890162	     -6.60230435	      1.40554065	      1.20735988	      4.73043892	    -16.87918259	      0.00000000	     -0.84634894	     -1.06747810	     -5.32260225	      2.20753068	      5.93338594	     -4.69793461	      0.00000000	     -8.70689606	      0.24558984	     -1.68115338	     11.96186765	     -9.24243458	     40.68099155	     97.29769719	    101.10042462	      6.91507855	     -9.97679969	     31.20272401	     93.24217381	     96.75079398
      0.16666670	     -2.86250853	      2.50870990	     -2.50400597	      1.82876158	      0.88316163	     -0.17549688	     -1.23913521	     -6.54083871	      1.49562335	      1.00284928	      4.74311865	    -16.94365508	      0.00000000	     -0.76530460	     -1.13327212	     -5.23319361	      2.20581481	      5.78982987	     -4.63964561	      0.00000000	     -8.88655389	      0.18499084	     -1.68799623	     11.96026488	     -9.25043755	     40.75342161	     97.30784976	    101.07515926	      7.00915335	     -9.98532640	     31.21351504	     93.21577314	     96.72878605
      0.18333330	     -2.77692104	      2.51560160	     -2.40180156	      1.82919235	      0.88298272	     -0.17567446	     -1.46090927	     -6.54219694	      1.61698128	      0.82191148	      4.68795202	    -17.10833646	      0.00000000	     -0.81113290	     -1.15136769	     -5.09573545	      2.33490552	      5.49585721	     -4.55626487	      0.00000000	     -8.82849758	      0.25650795	     -1.73426607	     11.96369610	     -9.32697836	     40.90915236	     97.40739735	    101.02631028	      7.15807817	    -10.00069973	     31.29108852	     93.20368386	     96.68577427
      0.20000000	     -2.77940669	      2.52078367	     -2.40095195	      1.82935711	      0.88335244	     -0.17581461	     -1.45880995	     -6.54093013	      1.61695288	      0.81968156	      4.68732988	    -17.10960301	      0.00000000	     -0.81295883	     -1.15636049	     -5.09511072	      2.33430769	      5.49511249	     -4.55635611	      0.00000000	     -8.83089008	      0.25579308	     -1.73452063	     11.96405650	     -9.32775015	     40.90988728	     97.40776258	    101.02601430	      7.15803616	    -10.00080244	     31.29201063	     93.20312752	     96.68552298
